{"asset":{"version":"2.0","generator":"septopus gen-fixtures"},"scenes":[{"nodes":[0,1,2,3,4,5,6,7]}],"scene":0,"nodes":[{"name":"tier1Body","mesh":0,"scale":[1.6,0.5,1.6],"translation":[0,-1.275,0]},{"name":"tier1Roof","mesh":1,"scale":[2.0,0.35,2.0],"translation":[0,-0.85,0]},{"name":"tier2Body","mesh":0,"scale":[1.1,0.45,1.1],"translation":[0,-0.45,0]},{"name":"tier2Roof","mesh":1,"scale":[1.5,0.3,1.5],"translation":[0,-0.075,0]},{"name":"tier3Body","mesh":0,"scale":[0.7,0.3,0.7],"translation":[0,0.225,0]},{"name":"tier3Roof","mesh":1,"scale":[1.0,0.35,1.0],"translation":[0,0.55,0]},{"name":"spireBody","mesh":0,"scale":[0.12,0.5,0.12],"translation":[0,0.975,0]},{"name":"spireCap","mesh":1,"scale":[0.25,0.3,0.25],"translation":[0,1.375,0]}],"meshes":[{"name":"boxUnit","primitives":[{"attributes":{"POSITION":0,"NORMAL":1},"indices":2,"material":0}]},{"name":"roofUnit","primitives":[{"attributes":{"POSITION":3,"NORMAL":4},"indices":5,"material":1}]}],"materials":[{"name":"wood","pbrMetallicRoughness":{"baseColorFactor":[0.55,0.38,0.22,1],"metallicFactor":0,"roughnessFactor":0.85}},{"name":"roofTile","pbrMetallicRoughness":{"baseColorFactor":[0.68,0.15,0.12,1],"metallicFactor":0,"roughnessFactor":0.6},"emissiveFactor":[0.05,0.01,0.01]}],"buffers":[{"byteLength":1068,"uri":"data:application/octet-stream;base64,"}],"bufferViews":[{"buffer":0,"byteOffset":0,"byteLength":288,"target":34962},{"buffer":0,"byteOffset":288,"byteLength":288,"target":34962},{"buffer":0,"byteOffset":576,"byteLength":72,"target":34963},{"buffer":0,"byteOffset":648,"byteLength":192,"target":34962},{"buffer":0,"byteOffset":840,"byteLength":192,"target":34962},{"buffer":0,"byteOffset":1032,"byteLength":36,"target":34963}],"accessors":[{"bufferView":0,"componentType":5126,"count":24,"type":"VEC3","min":[-0.5,-0.5,-0.5],"max":[0.5,0.5,0.5]},{"bufferView":1,"componentType":5126,"count":24,"type":"VEC3"},{"bufferView":2,"componentType":5123,"count":36,"type":"SCALAR"},{"bufferView":3,"componentType":5126,"count":16,"type":"VEC3","min":[-0.5,-0.5,-0.5],"max":[0.5,0.5,0.5]},{"bufferView":4,"componentType":5126,"count":16,"type":"VEC3"},{"bufferView":5,"componentType":5123,"count":18,"type":"SCALAR"}]}