{"asset":{"version":"2.0","generator":"septopus gen-fixtures"},"scenes":[{"nodes":[0]}],"scene":0,"nodes":[{"mesh":0,"name":"DemoPyramid"}],"meshes":[{"name":"pyramid","primitives":[{"attributes":{"POSITION":0,"NORMAL":1},"indices":2,"material":0}]}],"materials":[{"name":"orange","pbrMetallicRoughness":{"baseColorFactor":[0.95,0.45,0.1,1],"metallicFactor":0,"roughnessFactor":0.7},"emissiveFactor":[0.3,0.12,0.02]}],"buffers":[{"byteLength":468,"uri":"data:application/octet-stream;base64,"}],"bufferViews":[{"buffer":0,"byteOffset":0,"byteLength":216,"target":34962},{"buffer":0,"byteOffset":216,"byteLength":216,"target":34962},{"buffer":0,"byteOffset":432,"byteLength":36,"target":34963}],"accessors":[{"bufferView":0,"componentType":5126,"count":18,"type":"VEC3","min":[-1,-0.8,-1],"max":[1,0.8,1]},{"bufferView":1,"componentType":5126,"count":18,"type":"VEC3"},{"bufferView":2,"componentType":5123,"count":18,"type":"SCALAR"}]}