{"asset":{"version":"2.0","generator":"septopus gen-fixtures"},"scenes":[{"nodes":[0,1,2,3]}],"scene":0,"nodes":[{"name":"trunk","mesh":0,"scale":[0.18,0.9,0.18],"translation":[0,-0.45,0]},{"name":"foliage1","mesh":1,"scale":[1.8,0.9,1.8],"translation":[0,-0.1,0]},{"name":"foliage2","mesh":1,"scale":[1.3,0.75,1.3],"translation":[0,0.3,0]},{"name":"foliage3","mesh":1,"scale":[0.9,0.6,0.9],"translation":[0,0.6,0]}],"meshes":[{"name":"boxUnit","primitives":[{"attributes":{"POSITION":0,"NORMAL":1},"indices":2,"material":0}]},{"name":"coneUnit","primitives":[{"attributes":{"POSITION":3,"NORMAL":4},"indices":5,"material":1}]}],"materials":[{"name":"bark","pbrMetallicRoughness":{"baseColorFactor":[0.36,0.24,0.14,1],"metallicFactor":0,"roughnessFactor":0.9}},{"name":"foliage","pbrMetallicRoughness":{"baseColorFactor":[0.16,0.42,0.16,1],"metallicFactor":0,"roughnessFactor":0.85}}],"buffers":[{"byteLength":1536,"uri":"data:application/octet-stream;base64,"}],"bufferViews":[{"buffer":0,"byteOffset":0,"byteLength":288,"target":34962},{"buffer":0,"byteOffset":288,"byteLength":288,"target":34962},{"buffer":0,"byteOffset":576,"byteLength":72,"target":34963},{"buffer":0,"byteOffset":648,"byteLength":396,"target":34962},{"buffer":0,"byteOffset":1044,"byteLength":396,"target":34962},{"buffer":0,"byteOffset":1440,"byteLength":96,"target":34963}],"accessors":[{"bufferView":0,"componentType":5126,"count":24,"type":"VEC3","min":[-0.5,-0.5,-0.5],"max":[0.5,0.5,0.5]},{"bufferView":1,"componentType":5126,"count":24,"type":"VEC3"},{"bufferView":2,"componentType":5123,"count":36,"type":"SCALAR"},{"bufferView":3,"componentType":5126,"count":33,"type":"VEC3","min":[-0.5,-0.5,-0.5],"max":[0.5,0.5,0.5]},{"bufferView":4,"componentType":5126,"count":33,"type":"VEC3"},{"bufferView":5,"componentType":5123,"count":48,"type":"SCALAR"}]}